<?xml version="1.0" encoding="utf-8" ?>
<svg xmlns="http://www.w3.org/2000/svg" xmlns:xlink="http://www.w3.org/1999/xlink" width="1024" height="1024">
	<path fill="white" transform="scale(1.6 1.6)" d="M337.786 542.558C283.067 547.767 222.778 524.154 182.455 487.686C40.4136 359.224 122.05 119.033 310.931 110.136C399.766 106.445 483.222 156.77 519.216 238.144C553.792 316.309 539.358 407.462 481.989 471.497C445.869 511.813 392.139 539.573 337.786 542.558ZM313.934 120.444C197.756 127.499 114.078 222.842 121.236 339.069C128.193 452.026 222.743 535.525 335.391 532.185C387.838 529.536 438.557 503.734 473.556 464.936C590.338 335.479 504.321 132.64 335.784 120.896C328.576 120.394 321.149 119.866 313.934 120.444Z"/>
	<path fill="white" transform="scale(1.6 1.6)" d="M295.206 241.645C276.47 238.19 247.504 207.344 227.775 198.35C220.344 194.963 215.997 198.522 210.592 196.799C204.77 194.943 206.384 187.276 211.829 185.085C237.951 183.143 265.977 214.796 289.843 227.533C293.913 229.705 304.202 232.883 299.633 239.376C298.438 241.074 297.173 241.312 295.206 241.645Z"/>
	<path fill="white" transform="scale(1.6 1.6)" d="M360.296 237.002C356.967 239.877 348.432 246.2 347.3 237.487C346.449 230.937 357.134 225.544 361.166 221.804C379.614 204.696 393.955 188.879 420.783 186.689C432.099 185.886 441.443 194.853 430.519 200.268C402.641 190.081 379.624 220.201 360.296 237.002Z"/>
	<path fill="white" transform="scale(1.6 1.6)" d="M272.904 347.574C238.24 361.868 200.64 340.079 194.125 302.963C190.482 282.212 203.475 238.379 226.837 234.455C231.455 234.957 234.382 239.355 237.543 242.337C251.347 255.36 274.353 263.897 292.536 267.382C305.723 269.91 310.953 265.518 310.967 283.596C310.989 311.579 299.73 335.597 272.904 347.574ZM226.267 246.211C177.505 281.149 216.483 364.865 272.68 335.957C294.586 323.389 301.021 302.653 300.301 279.037C274.746 275.177 251.452 269.478 231.571 251.106C229.976 249.632 228.101 247.273 226.267 246.211Z"/>
	<path fill="white" transform="scale(1.6 1.6)" d="M375.195 348.179C355.884 339.951 341.923 322.86 336.413 302.695C334.673 296.331 332.009 279.767 335.705 273.806C338.974 268.535 346.457 270.343 351.651 269.591C367.114 267.354 381.569 259.509 394.353 250.912C401.134 246.351 408.854 238.731 416.859 236.948C428.895 236.152 442.421 255.947 446.653 265.337C469.201 315.366 427.007 368.227 375.195 348.179ZM417.449 247.405C399.332 259.497 386.392 272.079 363.863 277.996C357.534 279.658 351.035 280.176 344.658 281.537C344.487 304.167 354.687 325.482 374.937 336.23C426.144 361.746 468.538 293.276 423.696 251.568C422.044 250.031 419.804 247.678 417.449 247.405Z"/>
	<path fill="white" transform="scale(1.6 1.6)" d="M254.639 317.798C223.301 318.654 222.213 275.366 251.739 272.301C279.137 271.009 286 312.551 254.639 317.798ZM250.429 283.516C234.623 289.619 240.559 309.895 255.241 306.793C270.312 301.516 266.091 281.923 250.429 283.516Z"/>
	<path fill="white" transform="scale(1.6 1.6)" d="M397.614 317.695C367.462 320.718 361.317 278.306 390.476 272.571C419.346 270.242 427.358 310.604 397.614 317.695ZM390.734 283.472C375.552 288.865 381.738 310.234 397.081 306.746C411.899 301.18 406.363 282.124 390.734 283.472Z"/>
	<path fill="white" transform="scale(1.6 1.6)" d="M327.196 452.215C309.487 452.392 292.317 454.394 274.994 458.149C266.11 460.075 236.544 471.977 235.292 455.934C234.579 446.804 243.222 436.392 248.925 429.832C268.791 406.978 290.382 397.522 319.615 395.445C345.871 394.166 372.337 402.993 391.531 421.202C399.16 428.441 411.2 443.373 411.264 454.474C411.368 472.577 382.178 459.625 374.014 457.629C358.733 453.892 342.906 452.25 327.196 452.215ZM316.037 406.061C288.995 408.502 255.791 427.332 246.126 454.022L246.643 453.945C253.25 452.933 259.644 450.455 266.191 449.066C287.714 444.5 308.735 441.395 330.781 441.524C355.682 441.559 377.018 447.012 400.645 454.036C388.396 420.502 350.186 402.644 316.037 406.061Z"/>
</svg>
