<?xml version="1.0" encoding="utf-8" ?>
<svg xmlns="http://www.w3.org/2000/svg" xmlns:xlink="http://www.w3.org/1999/xlink" width="1024" height="1024">
	<path fill="white" transform="scale(1.6 1.6)" d="M399.282 459.333C394.983 455.4 390.661 455.849 385.072 455.273L366.059 453.386C299.401 447.046 241.789 448.193 176.015 455.691C163.956 457.066 151.689 458.832 139.542 459.076C117.02 459.528 111.51 445.057 105.048 426.572C81.7455 359.917 76.9983 272.939 96.3298 205.563C100.023 192.69 107.416 169.207 116.886 159.635C124.089 152.355 133.654 152.354 143.168 151.214C186.325 146.04 229.298 139.454 272.897 139.517C325.015 138.978 371.137 144.534 422.94 150.917C450.504 154.313 453.872 157.851 463.487 184.423C475.531 217.708 480.141 248.914 482.55 283.928C529.197 288.709 567.051 332.029 569.8 378.178C575.381 471.852 468.081 521.203 399.282 459.333ZM262.847 152.337C229.777 153.253 197.145 157.536 164.338 161.525L144.845 163.812C122.778 166.241 125.213 165.637 116.264 187.074C88.0913 254.567 93.5064 353.534 117.415 422.882C123.831 441.489 124.69 447.868 145.93 445.895C180.512 442.683 214.964 437.635 249.711 436.305C296.631 434.509 337.608 438.078 384.157 442.026C378.404 432.221 374.126 422.667 370.723 411.835C327.574 406.523 285.642 405.516 242.26 407.408C213.248 408.541 183.773 411.567 155.207 416.996C150.296 417.929 141.017 421.478 136.753 417.37C133.953 414.673 135.259 410.326 137.836 407.998C144.016 402.416 219.924 395.808 229.982 395.118C275.621 391.989 322.218 392.669 367.614 398.627C367.403 391.338 367.107 384.037 367.814 376.764C372.903 324.411 416.643 282.915 469.763 283.396C468.544 250.625 461.782 214.002 449.536 183.839C442.388 166.231 441.896 166.365 423.443 164.003L405.572 161.624C358.11 155.177 310.748 151.303 262.847 152.337ZM467.068 296.076C416.492 298.369 377.984 340.637 380.318 391.281C382.487 438.343 424.312 475.419 470.927 474.537C521.983 472.282 559.789 431.235 557.237 379.986C554.88 332.656 514.355 294.82 467.068 296.076Z"/>
	<path fill="white" transform="scale(1.6 1.6)" d="M305.859 183.295C291.448 182.313 276.841 182.903 262.418 183.293C221.168 184.409 184.615 188.133 144.155 193.758C133.526 195.235 131.831 183.373 140.508 180.766C145.919 179.14 156.969 178.583 163.255 177.833C196.291 173.891 229.333 171.882 262.557 170.448C313.975 168.576 366.305 172.233 417.266 179.1C421.554 179.677 434.218 179.863 433.633 186.529C432.628 197.962 415.389 192.022 407.86 191C372.865 186.249 340.651 185.069 305.859 183.295Z"/>
	<path fill="white" transform="scale(1.6 1.6)" d="M240.173 344.985C236.975 342.509 233.794 339.953 230.818 337.213C180.171 290.585 212.22 203.57 281.631 201.395C320.852 201.322 355.33 230.682 360.497 269.849C366.218 313.217 333.278 353.1 290.297 358.165C281.219 359.235 272.149 358.496 263.051 358.319C230.697 357.69 203.212 360.127 170.995 364.48L162.871 365.568C165.204 388.136 151.283 381.63 150.086 375.034C149.332 370.883 148.98 348.657 151.143 345.802C156.002 339.391 162.303 344.239 162.903 352.333C189.068 349.876 213.521 346.685 240.173 344.985ZM276.744 214.182C240.541 218.183 215.292 252.664 219.595 288.285C223.652 321.88 255.957 350.575 290.388 345.211C324.693 340.264 353.289 306.676 348 271.424C342.952 237.776 311.009 211.095 276.744 214.182Z"/>
	<path fill="white" transform="scale(1.6 1.6)" d="M301.892 309.91C294.361 314.664 282.095 323.577 273.541 325.049C262.464 326.955 252.038 318.802 250.382 307.861C249.209 300.111 249.995 288.977 249.977 280.874L249.935 262.933C249.913 248.207 251.009 236.147 268.583 233.851C278.933 233.091 295.666 245.49 304.547 250.65C316.973 257.87 338.648 265.954 334.307 284.04C331.654 295.094 312.082 303.598 301.892 309.91ZM269.343 246.251C267.368 246.98 263.857 248.15 263.048 250.305C262.282 252.346 262.621 299.859 262.99 305.22C264.248 323.504 293.219 300.277 299.699 296.206C303.967 293.55 320.383 284.647 321.436 280.066C322.945 273.501 305.424 266.33 300.516 263.434C295.872 260.694 273.658 245.781 269.343 246.251Z"/>
	<path fill="white" transform="scale(1.6 1.6)" d="M484.605 416.965C475.787 420.659 458.261 430.107 449.903 431.055C426.495 433.711 428.039 408.955 428.09 394.517C428.151 377.329 422.739 350.085 447.032 347.619C453.855 347.315 459.838 351.293 465.684 354.324L484.797 364.434C496.608 370.754 523.114 379.626 515.838 397.895C511.628 408.465 494.689 412.586 484.605 416.965ZM446.05 360.054C444.089 361.076 442.237 362.043 441.398 364.243C440.603 366.328 439.619 410.631 441.668 414.594C446.753 424.432 476.001 407.231 483.73 403.761C489.21 401.381 512.676 394.974 499.971 387.049C493.569 383.055 486.388 379.988 479.726 376.417L460.012 365.656C455.9 363.399 451.022 359.291 446.05 360.054Z"/>
</svg>
