<?xml version="1.0" encoding="utf-8" ?>
<svg xmlns="http://www.w3.org/2000/svg" xmlns:xlink="http://www.w3.org/1999/xlink" width="1024" height="1024">
	<path fill="white" transform="scale(1.6 1.6)" d="M149.948 323.168C148.272 316.77 146.042 310.517 144.371 304.112C113.624 186.216 194.25 91.035 312.315 85.7581C335.69 83.7019 367.101 89.3156 388.536 97.2476C483.71 132.467 523.373 228.935 488.439 322.817C510.718 341.7 515.049 375.038 498.141 399.006C492.515 406.98 479.614 418.723 469.728 420.409C454.396 489.605 400.919 541.21 328.516 545.934C257.697 548.292 196.774 506.864 174.558 439.517C172.623 433.652 170.506 427.393 169.885 421.231C128.133 405.628 117.236 353.064 149.948 323.168ZM312.906 97.0545C197.124 102.869 123.048 195.169 157.909 309.578C159.834 315.895 162.713 322.124 162.447 328.833C155.084 330.93 151.084 337.617 147.491 344.017C134.318 367.484 145.692 394.551 167.563 408.045L167.56 296.843C167.562 291.412 167.352 285.874 167.834 280.463C168.874 268.806 177.157 271.362 186.186 270.682C227.699 267.558 329.62 256.055 362.622 239.993C374.654 233.936 384.768 225.473 392.945 214.76C395.013 212.052 396.443 208.102 399.114 205.994C406.058 200.513 408.68 213.315 409.956 216.523C418.83 238.85 435.214 257.189 457.08 267.173C468.274 272.284 470.531 271.364 471.305 285.209C471.572 289.995 471.417 294.853 471.411 299.648L470.948 407.878C496.718 395.479 505.764 360.027 487.1 337.637C481.253 330.622 474.14 329.274 477.157 320.356C493.098 273.236 497.226 233.569 474.083 186.204C445.554 127.814 376.88 92.582 312.906 97.0545ZM400.551 223.702C376.944 252.897 351.584 257.439 316.684 264.225C269.653 273.37 225.999 277.968 178.806 282.542C178.314 291.119 178.561 299.791 178.561 308.382L178.557 383.114C178.548 398.34 178.799 412.22 182.666 426.994C192.727 465.431 218.969 500.504 254.825 518.378C325.507 553.717 409.385 528.551 445.314 456.642C462.408 422.431 460.124 400.005 460.121 362.825L460.125 280.517C438.952 275.006 418.912 256.26 407.972 237.676C406.295 234.827 402.169 225.436 400.551 223.702Z"/>
	<path fill="white" transform="scale(1.6 1.6)" d="M225.998 309.463C222.806 309.816 220.504 308.201 219.415 305.142C216.529 297.038 236.141 294.341 240.698 292.666C247.869 290.028 254.637 286.279 261.801 283.753C266.107 283.278 270.721 287.936 267.932 292.094C264.439 297.3 233.345 307.836 225.998 309.463Z"/>
	<path fill="white" transform="scale(1.6 1.6)" d="M414.433 309.529C408.14 309.705 389.561 301.03 383.107 298.434C377.418 296.146 361.909 289.828 375.389 284.082C378.096 284.011 407.764 295.018 414.076 297.491C420.928 300.175 421.05 306.951 414.433 309.529Z"/>
	<path fill="white" transform="scale(1.6 1.6)" d="M367.039 343.739C362.288 339.636 359.794 334.154 366.893 331.266C369.638 331.249 403.35 341.521 406.393 342.752C421.864 349.009 412.525 366.204 403.994 374.278C381.735 391.888 365.22 366.756 367.039 343.739ZM377.875 346.432C378.537 355.365 379.609 366.053 389.798 368.531C393.313 367.708 395.625 366.517 398.249 364.019C400.78 360.943 402.161 358.164 403.18 354.339C395.239 350.696 386.404 348.276 377.875 346.432Z"/>
	<path fill="white" transform="scale(1.6 1.6)" d="M235.17 374.53C227.669 368.472 217.438 350.227 229.955 344.088C239.811 339.254 259.244 335.504 271.012 331.578C280.211 331.197 275.9 340.131 272.481 344.359C272.633 353.936 272.243 362.343 266.289 370.358C258.325 381.079 245.655 382.335 235.17 374.53ZM259.908 347.269C254.54 348.263 241.021 351.321 236.279 353.591C237.091 358.335 238.053 361.801 241.594 365.277C256.518 376.09 265.362 350.975 260.953 347.234L259.908 347.269Z"/>
	<path fill="white" transform="scale(1.6 1.6)" d="M323.373 434.829C302.293 434.351 283.867 441.779 266.955 453.882C263.95 456.033 259.926 460.053 256.289 460.749C235.58 464.71 266.998 415.782 270.448 411.386C281.83 396.881 296.63 386.053 315.242 383.872C349.825 379.639 377.071 416.028 387.007 444.882C388.808 450.112 393.489 464.347 382.065 460.478C377.957 459.087 374.264 455.22 370.745 452.71C356.475 442.534 341.118 435.658 323.373 434.829ZM315.53 395.425C290.591 399.578 276.66 420.093 265.832 440.874C285.56 428.723 301.52 422.777 325.078 423.446C342.351 424.542 359.063 430.317 372.932 440.746C363.662 419.624 341.834 391.745 315.53 395.425Z"/>
</svg>
