<?xml version="1.0" encoding="utf-8" ?>
<svg xmlns="http://www.w3.org/2000/svg" xmlns:xlink="http://www.w3.org/1999/xlink" width="1023" height="1023">
	<path fill="white" transform="scale(1.6 1.6)" d="M154.219 300.198C146.901 251.278 149.855 205.899 180.378 164.374C215.38 116.757 252.174 94.1455 313.139 91.0722C371.103 86.9902 426.019 113.207 458.619 161.93C482.797 198.065 496.469 255.765 487.874 299.405C499.243 293.107 510.065 295.025 515.026 307.705C525.721 335.042 506.071 385.399 476.679 396.983C475.823 404.039 473.895 411.142 471.977 417.973C452.53 487.234 400.945 553.164 324.749 557.712C242.84 559.606 186.259 485.166 166.574 412.371C165.24 407.438 164.157 402.421 162.64 397.542C138.276 384.059 125.432 357.199 122.597 330.137C121.596 320.587 122.24 309.758 128.627 302.032C135.7 293.474 145.999 292.951 154.219 300.198ZM312.997 102.676C256.968 104.452 221.566 128.096 189.445 171.913C156.279 217.155 158.47 271.348 171.156 323.293C171.948 326.535 173.019 329.932 173.341 333.253C173.886 338.894 168.03 341.997 164.255 337.708C157.956 330.552 156.946 308.642 141.353 307.215C126.404 305.847 134.932 369.242 164.236 385.087C175.249 380.541 174.244 394.442 176.03 402.349C191.597 471.296 246.45 547.789 323.697 546.13C398.264 543.074 449.853 468.855 463.93 401.761C469.726 374.134 467.96 390.661 479.761 382.841C503.961 366.805 513.72 306.482 499.35 307.524C479.146 308.988 482.45 348.528 469.876 337.202C465.142 332.939 471.446 318.238 472.709 313.26C484.051 268.553 478.296 219.868 455.719 179.421C425.869 125.943 372.878 100.042 312.997 102.676Z"/>
	<path fill="white" transform="scale(1.6 1.6)" d="M351.072 302.186C344.097 326.994 315.576 265.934 335.99 263.8C347.435 262.603 334.292 280.94 354.045 279.871C382.823 278.312 403.039 238.881 416.253 236.971C430.701 235.817 440.663 258.757 434.82 267.641C432.933 270.51 428.886 270.953 426.23 268.804C421.346 264.853 426.833 255.305 417.96 248.601C413.736 251.894 410.355 256.609 406.679 260.514C392.634 275.433 367.099 296.975 344.957 291.221C346.539 293.617 348.054 296.013 349.476 298.509C350.045 299.714 350.544 300.961 351.072 302.186Z"/>
	<path fill="white" transform="scale(1.6 1.6)" d="M297.093 291.647C274.605 296.21 250.196 276.784 235.306 261.662C231.453 257.75 227.859 251.965 223.135 249.2C214.25 243.998 221.273 277.429 207.914 269.603C198.865 264.303 206.747 239.823 219.992 237.271C238.997 236.077 256.988 280.638 289.473 279.978C300.722 279.749 295.085 270.638 300.823 264.991C303.146 262.704 307.249 263.939 309.075 266.292C314.665 273.495 308.056 300.083 300.407 305.682C295.234 309.469 290.356 307.074 291.811 300.795L291.897 300.432C292.994 297.121 294.96 294.362 297.093 291.647Z"/>
	<path fill="white" transform="scale(1.6 1.6)" d="M365.985 335.438C359.398 331.22 343.476 319.055 356.22 312.942C370.939 305.88 386.734 298.803 399.034 287.804C401.473 285.624 403.804 282.983 406.576 281.239C411.043 281.121 413.392 283.765 414.419 287.98C422.437 320.891 397.464 355.175 365.985 335.438ZM404.382 298.481C395.038 307.509 378.014 315.514 365.892 320.463C367.465 322.047 368.989 323.615 370.795 324.937C388.809 336.46 403.675 321.562 404.494 302.413C404.547 301.177 404.83 299.661 404.382 298.481Z"/>
	<path fill="white" transform="scale(1.6 1.6)" d="M276.938 334.471C232.436 363.58 211.269 289.604 232.778 281.532C236.406 281.603 244.012 289.501 247.256 291.8C256.229 298.158 265.865 303.372 275.691 308.272C279.403 310.123 291.472 313.521 290.534 319.028C289.557 324.769 281.374 331.268 276.938 334.471ZM236.863 299.256C237.909 319.583 248.863 338.597 270.826 324.703C272.601 323.408 274.428 322.15 276.148 320.785C262.268 316.027 248.651 307.92 236.863 299.256Z"/>
	<path fill="white" transform="scale(1.6 1.6)" d="M324.766 465.148C304.775 464.481 284.231 468.001 265.605 475.259C250.488 481.15 238.424 493.812 242.248 463.883C247.327 424.126 272.033 377.25 316.506 373.564C368.489 369.735 398.118 429.931 399.832 474.176C400.52 491.929 382.282 478.418 374.494 475.218C358.755 468.749 341.736 465.684 324.766 465.148ZM316.609 385.421C276.959 390.62 258.047 431.958 253.818 467.636C276.119 456.767 299.879 453.4 324.436 453.432C342.148 453.576 371.46 458.002 387.32 467.416C384.482 430.811 359.045 382.662 316.609 385.421Z"/>
</svg>
