<?xml version="1.0" encoding="utf-8" ?>
<svg xmlns="http://www.w3.org/2000/svg" xmlns:xlink="http://www.w3.org/1999/xlink" width="1024" height="1024">
	<path fill="white" transform="scale(1.6 1.6)" d="M299.583 406.287C295.713 405.605 291.432 405.939 287.496 405.941L154.316 405.973C143.22 405.98 131.703 406.741 122.928 398.559C107.533 384.205 105.54 334.337 104.969 314.828C103.457 263.222 110.282 224.747 120.201 175.455L123.764 158.19C128.346 135.698 132.378 125.246 159.091 125.244L373.49 125.263C398.686 125.262 423.953 125.659 449.142 125.158C459.833 125.453 486.765 123.765 495.723 126.069C511.205 130.052 514.479 143.572 517.305 157.081L521.218 176.401C534.296 241.601 544.493 307.904 529.249 374.035C522.765 402.163 515.364 405.979 486.936 405.968L341.955 405.965C339.357 415.82 339.643 425.83 339.683 435.92C365.632 436.941 402.907 442.205 422.462 460.867C432.072 470.038 432.961 482.733 423.608 492.413C389.336 527.881 251.907 525.837 217.558 492.486C208.573 483.074 208.95 471.362 217.714 461.865C234.918 443.223 276.541 436.674 300.612 435.721C302.003 425.986 300.524 415.982 299.583 406.287ZM152.023 138.882C136.822 140.832 137.333 161.056 134.827 172.528C121.95 231.472 113.272 286.36 121.101 347.419C122.394 357.501 125.197 382.901 133.273 389.3C138.887 393.749 147.748 392.475 154.44 392.471L405.234 392.448C433.324 392.449 461.445 392.166 489.531 392.507C496.989 392.498 503.721 393.533 509.525 387.751C521.428 375.892 522.605 306.965 522.51 290.738C522.278 251.011 514.725 212.973 506.764 174.328C505.057 166.045 503.922 155.68 501.288 147.824C497.381 136.174 483.358 138.787 473.666 138.782L224.623 138.794C200.467 138.794 176.158 137.902 152.023 138.882ZM312.813 405.928C315.188 419.708 316.224 448.349 307.819 459.812C305.441 463.055 301.97 465.217 299.12 467.985C307.877 472.117 317.368 473.027 326.951 472.154C332.001 471.708 336.421 470.286 340.829 467.79C323.33 453.615 323.718 426.503 328.016 406.064L312.813 405.928ZM291.107 450.127C280.636 450.93 203.06 464.827 230.048 485.717C261.138 509.782 361.447 509.919 401.111 491.239C407.344 488.175 414.124 484.502 416.732 477.646C411.25 457.424 358.476 449.915 342.163 449.982C346.821 455.822 357.217 459.623 356.258 468.276C353.503 493.134 280.603 490.371 284.125 466.209C285.462 457.037 307.561 449.04 291.107 450.127Z"/>
	<path fill="white" transform="scale(1.6 1.6)" d="M325.377 335.614L325.032 335.656C304.457 337.98 281.797 328.708 265.957 315.892C206.73 267.975 237.189 171.629 315.439 164.195C334.271 161.155 358.657 171.173 373.087 182.865C433.573 231.874 403.424 327.875 325.377 335.614ZM315.173 177.939C251.595 183.547 224.934 264.38 275.645 306.08C289.083 317.13 308.767 324.491 326.3 321.787C366.275 316.674 396.321 281.38 390.99 240.627C386.507 206.346 350.444 171.57 315.173 177.939Z"/>
	<path fill="white" transform="scale(1.6 1.6)" d="M338.793 278.402C329.686 283.701 314.354 294.875 304.48 296.582C287.037 299.599 285.184 283.211 285.231 271.258L285.237 231.653C285.224 219.254 285.057 203.988 300.791 201.973C310.693 201.54 331.847 217.384 340.799 222.792C348.471 227.428 356.814 231.552 364.11 236.733C371.951 242.301 374.687 254.169 367.168 261.336C363.129 265.186 357.457 267.776 352.61 270.502L338.793 278.402ZM300.243 215.763C298.059 220.18 297.671 279.466 300.579 282.706C304.346 284.25 312.768 277.842 315.832 276.029L337.043 263.322C343.831 259.46 352.153 255.565 358.109 250.561C354.874 245.918 304.358 215.879 300.243 215.763Z"/>
	<path fill="white" transform="scale(1.6 1.6)" d="M183.323 362.261C178.913 361.527 158.63 362.948 166.41 350.981C169.832 345.719 177.142 348.547 182.281 347.365C183.902 343.998 185.782 342.456 189.62 341.979C194.547 341.914 196.193 342.784 197.308 347.796L438.305 347.785C449.347 347.783 460.445 347.529 471.481 347.838C475.208 350.053 478.571 355.309 474.87 359.193C470.62 363.653 450.995 361.408 445.07 361.358C424.22 361.662 403.336 361.426 382.483 361.426L196.86 361.489C195.763 369.164 184.416 370.458 183.323 362.261Z"/>
</svg>
