<?xml version="1.0" encoding="utf-8" ?>
<svg xmlns="http://www.w3.org/2000/svg" xmlns:xlink="http://www.w3.org/1999/xlink" width="473" height="473">
	<path fill="white" transform="scale(0.739221 0.739221)" d="M327.611 544.601C120.218 547.302 17.8742 305.179 156.29 155.857C197.358 111.553 253.747 87.1201 313.838 84.8251C435.418 80.1691 540.011 178.334 547.287 299.137C552.507 385.793 510.744 468.08 436.457 512.622C402.18 533.175 366.931 542.19 327.611 544.601ZM312.8 99.1951C253.133 102.866 202.926 124.655 162.492 170.423C82.3598 261.126 90.3166 397.789 181.151 478.003C223.156 515.097 273.327 530.377 328.269 530.188C447.107 526.087 537.803 423.763 533.41 306.045C531.292 249.291 505.027 193.581 463.309 155.096C425.159 119.905 365.516 94.8733 312.8 99.1951Z"/>
	<path fill="white" transform="scale(0.739221 0.739221)" d="M200.006 205.224C193.145 209.874 181.809 224.532 178.112 225.011C170.314 226.022 168.056 217.115 173.44 210.411C184.172 197.047 199.453 185.465 216.875 183.559C236.429 181.005 265.808 198.932 250.912 208.118C241.362 214.008 232.419 184.947 200.006 205.224Z"/>
	<path fill="white" transform="scale(0.739221 0.739221)" d="M446.926 210.21C435.423 200.441 418.306 192.765 404.231 201.98C401.04 204.069 398.35 207.601 394.45 208.36C381.221 210.936 383.273 186.97 413.965 183.558C431.497 181.282 467.809 199.765 470.217 216.324C470.798 220.321 467.614 224.331 463.553 224.591C457.94 224.949 451.534 214.38 446.926 210.21Z"/>
	<path fill="white" transform="scale(0.739221 0.739221)" d="M413.199 337.149C357.32 338.872 357.986 236.1 410.872 232.635C456.397 232.928 474.078 330.431 413.199 337.149ZM410.891 247.631C396.605 248.713 391.033 261.076 387.812 273.453C407.605 257.893 427.107 276.828 423.787 299.064C422.525 307.515 413.901 315.674 408.659 307.286C404.643 300.861 412.253 293.861 408.305 287.011C405.382 281.939 400.269 280.485 395.821 284.481C372.454 310.335 409.927 336.898 430.129 313.239C446.215 294.4 435.852 249.064 410.891 247.631Z"/>
	<path fill="white" transform="scale(0.739221 0.739221)" d="M231.953 336.871C174.208 340.012 175.202 241.482 225.989 232.903C274.673 226.67 289.125 329.948 231.953 336.871ZM227.433 247.579C201.65 252.549 192.757 303.304 215.33 318.103C225.537 324.794 241.372 323.341 248.289 312.609C254.137 303.533 252.176 286.821 241.018 282.55C223.185 279.755 236.723 304.514 231.525 308.547C227.599 311.593 222.084 310.19 219.3 306.38C207.176 289.791 228.868 252.09 252.943 274.863C250.494 262.266 242.677 245.987 227.433 247.579Z"/>
	<path fill="white" transform="scale(0.739221 0.739221)" d="M421.336 456.237C409.18 470.844 389.155 485.987 372.153 494.446C296.414 532.129 216.064 477.184 190.66 404.158C187.489 395.04 176.392 363.762 188.459 358.466C193.22 358.328 202.138 361.774 207.624 362.961C291.766 381.175 358.203 383.36 443.592 360.23C460.804 355.567 457.947 365.148 456.324 377.349C452.512 406.006 439.098 433.673 421.336 456.237ZM198.43 375.365C202.45 408.894 227.04 452.15 255.696 469.158C290.824 434.504 349.596 436.796 385.514 469.724C394.21 462.772 402.827 455.58 409.961 446.972C426.955 426.215 436.872 401.891 442.423 375.858C350.51 396.256 288.103 397.268 198.43 375.365ZM313.574 459.187C296.633 460.692 281.151 466.095 267.982 477.097C282.072 488.338 310.943 493.801 328.049 491.979C342.55 490.555 360.805 486.221 372.846 477.303C356.754 463.27 335.63 457.685 314.575 459.113L313.574 459.187Z"/>
</svg>
