<?xml version="1.0" encoding="utf-8" ?>
<svg xmlns="http://www.w3.org/2000/svg" xmlns:xlink="http://www.w3.org/1999/xlink" width="1023" height="1023">
	<path fill="white" transform="scale(1.6 1.6)" d="M145.641 282.527C144.563 278.217 142.4 274.099 140.724 269.991C124.604 230.492 135.574 192.159 162.852 160.143C201.469 114.818 249.628 91.2884 307.973 86.6907C320.037 85.3578 338.796 86.7188 350.556 88.2258C421.26 97.2864 525.558 169.162 503.61 251.372C500.813 261.848 495.886 272.103 494.498 282.867C504.085 277.47 515.535 278.275 524.122 285.613C536.963 296.585 533.937 315.817 532.478 330.668C529.732 358.622 521.309 403.536 485.795 406.299C467.215 461.508 447.067 485.941 402.711 523.923C376.449 546.412 367.995 551.005 333.594 550.917L308.406 550.946C267.206 550.979 258.177 542.254 228.492 515.496C191.73 482.36 168.976 453.741 155.254 406.25C129.477 404.73 116.292 378.479 111.278 355.903C109.452 347.683 108.916 339.177 108.243 330.8C106.893 314.005 103.37 290.719 122.425 282.374C130.585 278.801 137.522 279.319 145.641 282.527ZM310.781 98.9272C267.054 100.588 226.879 118.144 194.11 146.469C168.761 168.382 144.155 198.219 145.46 233.561C146.238 254.614 153.742 263.8 158.607 282.604C159.892 287.57 164.001 313.161 160.587 316.674C149.51 328.073 151.188 302.529 141.805 295.435C137.225 291.972 130.445 290.384 125.603 294.258C117.342 300.869 119.61 315.002 120.099 324.233C121.181 344.675 127.02 386.086 150.914 393.204C148.728 384.867 134.343 331.76 147.469 328.556C157.109 326.203 155.097 345.099 155.315 350.23C156.753 384.128 177.526 438.964 197.065 464.933C211.994 484.775 242.873 513.511 263.453 527.933C277.934 538.08 289.13 538.428 306.069 538.418L329.281 538.39C365.598 538.47 369.591 536.316 398.008 511.685C414.443 497.44 431.13 482.521 444.097 464.947C464.748 436.957 483.897 383.815 486.282 347.696C486.578 343.219 485.612 335.467 487.472 331.543C489.232 327.83 494.548 327.951 497.138 330.638C504.286 338.056 492.614 379.914 490.652 393.168C505.211 387.742 513.326 369.076 516.65 354.732C519.281 343.374 523.22 310.623 519.421 300.277C514.885 287.928 498.692 290.208 493.863 301.441C491.876 306.063 491.311 316.691 486.036 318.715C482.681 320.002 478.389 317.649 477.417 314.246C476.559 311.237 479.462 304.388 479.793 300.4C480.434 292.673 480.664 284.877 482.56 277.321C488.522 253.555 498.7 235.744 492.253 210.205C485.548 183.64 461.533 157.635 440.645 140.915C404.517 111.998 357.184 96.0552 310.781 98.9272Z"/>
	<path fill="white" transform="scale(1.6 1.6)" d="M398.345 263.201C388.805 265.638 379.575 269.318 370.451 272.986C365.513 274.971 347.722 284.938 346.719 273.319C345.888 263.679 401.563 249.156 409.248 248.567C422.147 246.968 456.504 254.46 460.082 268.806C460.884 272.023 458.023 275.672 454.987 276.436C448.326 278.112 436.413 254.13 398.345 263.201Z"/>
	<path fill="white" transform="scale(1.6 1.6)" d="M254.298 268.095C236.262 262.308 212.686 256.015 196.291 269.33C193.43 271.654 190.555 275.903 186.71 276.508C179.253 277.682 177.918 269.505 181.77 264.866C190.086 254.85 205.349 249.854 217.896 248.879C238.159 247.184 257.928 255.739 276.613 262.476C282.139 264.468 296.597 267.595 294.173 276.105C291.516 285.435 277.906 276.9 272.752 274.868C266.656 272.464 260.478 270.27 254.298 268.095Z"/>
	<path fill="white" transform="scale(1.6 1.6)" d="M263.905 298.562C254.574 295.147 243.343 293.188 233.811 296.857C229.451 298.536 222.82 303.378 218.207 299.935C205.495 290.451 235.103 283.298 240.733 282.615C251.481 281.462 282.128 288.096 286.752 297.546C288.744 301.618 284.529 307.183 280.066 306.171C275.098 305.045 269.127 300.588 263.905 298.562Z"/>
	<path fill="white" transform="scale(1.6 1.6)" d="M386.303 295.713C377.867 297.579 361.186 308.094 356.921 305.135C341.266 294.273 383.929 283.255 390.211 282.626C396.6 281.737 432.927 286.399 423.904 299.139C420.685 303.682 414.945 300.321 411.044 298.698C402.602 295.186 395.493 294.373 386.303 295.713Z"/>
	<path fill="white" transform="scale(1.6 1.6)" d="M254.36 331.609C235.036 332.342 232.723 307.351 250.864 305.105C269.629 305.377 271.299 328.458 254.36 331.609Z"/>
	<path fill="white" transform="scale(1.6 1.6)" d="M391.666 331.34C373.793 333.472 368.566 309.623 386.8 305.377C405.53 303.35 408.7 326.179 391.666 331.34Z"/>
	<path fill="white" transform="scale(1.6 1.6)" d="M280.221 385.123C278.403 378.239 280.03 362.501 289.832 366.943C298.448 370.849 285.996 382.655 300.69 389.279C312.313 394.518 345.027 393.478 345.59 377.588C345.789 371.964 343.533 368.243 350.39 366.106L350.757 365.995C359.78 365.769 359.236 379.156 356.928 384.78C346.211 410.905 291.358 413.559 280.221 385.123Z"/>
	<path fill="white" transform="scale(1.6 1.6)" d="M320.918 447.944C334.983 439.884 347.864 437.053 363.859 436.384C371.159 436.14 376.768 442.235 371.207 447.353C369.084 449.307 344.447 450.699 336.021 454.269C316.302 462.627 326.539 463.701 307.438 455.101C298.581 451.113 288.833 449.896 279.224 449.616C267.377 448.376 266.034 439.425 274.668 436.903C285.551 433.723 311.603 442.76 320.918 447.944Z"/>
	<path fill="white" transform="scale(1.6 1.6)" d="M336.328 489.696L316.298 489.767C312.525 489.795 308.449 490.134 304.718 489.64C295.544 488.427 296.205 478.156 305.794 476.977C312.591 476.595 330.111 476.154 336.345 477.224C345.487 478.795 344.232 488.69 336.328 489.696Z"/>
</svg>
