<?xml version="1.0" encoding="utf-8" ?>
<svg xmlns="http://www.w3.org/2000/svg" xmlns:xlink="http://www.w3.org/1999/xlink" width="473" height="473">
	<path fill="white" transform="scale(0.739221 0.739221)" d="M320.403 562.505C204.363 562.595 102.205 442.615 100.046 329.714C97.5261 197.933 186.282 94.933 320.423 92.6499L321.47 92.6435C448.082 92.2867 540.653 195.794 540.717 320.057C540.753 387.769 515.195 447.336 467.366 495.178C429.567 532.988 374.941 562.539 320.403 562.505ZM312.244 106.693C256.889 110.211 203.331 132.456 166.249 174.625C119.894 227.341 103.65 304.585 119.334 372.484C140.227 462.936 231.818 554.33 328.697 548.54C388.971 546.458 452.493 500.259 486.685 451.268C554.043 354.753 536.762 208.076 436.032 141.482C400.013 117.67 357.083 105.075 313.839 106.624L312.244 106.693Z"/>
	<path fill="white" transform="scale(0.739221 0.739221)" d="M169.976 234.716C176.656 239.05 179.161 247.831 187.909 249.892C203.984 253.681 233.348 224.307 243.304 214.037C247.312 209.904 250.285 204.34 255.307 201.308C259.973 200.893 262.995 203.568 266.001 206.874C283.962 226.618 285.949 241.737 265.698 259.734C282.044 269.64 293.912 289.173 295.93 308.006C302.082 365.407 235.522 396.164 192.112 360.566C173.68 345.022 166.995 322.495 169.396 298.813C163.165 299.446 141.254 307.025 141.653 294.68C141.777 290.819 145.256 287.451 147.305 284.396C152.647 276.43 155.62 266.474 157.471 257.182C159.565 246.664 157.279 234.309 169.976 234.716ZM257.839 218.693C239.14 239.103 199.656 281.072 171.619 255.557C170.685 266.595 166.203 276.399 161.709 286.353C179.228 283.622 270.455 259.692 265.723 232.894C264.96 228.577 261.625 221.16 257.839 218.693ZM253.889 268.668C228.11 282.929 211.023 288.775 183.196 295.534C179.536 321.926 189.164 348.198 215.113 358.453C271.667 380.068 309.617 306.674 258.682 271.334C257.16 270.277 255.727 269.091 253.889 268.668Z"/>
	<path fill="white" transform="scale(0.739221 0.739221)" d="M374.44 259.739C363.721 251.412 357.305 239.093 362.204 225.46C365.166 217.217 373.898 205.119 381.959 201.293C388.465 200.359 392.6 209.273 396.537 213.258C465.304 282.86 458.877 232.202 473.805 234.541C482.315 235.874 482.792 260.666 485.485 268.347C488.286 276.334 492.209 282.924 497.034 289.799C509.11 307.004 477.006 299.614 471.269 298.246C472.982 322.238 468.055 341.712 450.058 359.154C405.768 398.748 334.597 363.571 345.203 303.362C348.331 285.609 359.874 269.926 374.44 259.739ZM382.046 218.611C371.179 233.443 370.678 240.86 386.864 252.141C413.461 270.679 446.803 279.225 477.942 286.487C473.811 275.314 471.757 268.145 468.895 256.728C442.523 277.4 413.216 248.202 393.663 229.977C389.752 226.331 386.219 221.916 382.046 218.611ZM386.947 268.802C327.743 300.403 367.92 381.591 425.559 358.644C452.009 346.698 461.924 322.664 456.417 295.163C426.082 287.263 416.025 283.386 386.947 268.802Z"/>
	<path fill="white" transform="scale(0.739221 0.739221)" d="M431.945 308.529C423.411 333.621 389.2 333.937 380.926 309.127C378.09 300.624 379.665 286.792 389.495 283.486C393.376 283.584 395.553 285.367 397.322 288.839C396.263 291.975 394.402 294.789 393.675 298.057C391.185 309.245 404.777 318.165 413.894 311.454C422.289 305.274 415.587 287.313 425.88 289.826C434.759 291.994 434.041 301.405 431.945 308.529Z"/>
	<path fill="white" transform="scale(0.739221 0.739221)" d="M209.347 310.874C206.797 304.175 205.427 286.248 216.856 289.891C222.291 291.623 220.146 302.033 223.03 307.091C228.091 315.967 240.508 315.517 245.602 306.749C250.743 297.899 237.124 290.178 248.5 284.084C253.591 283.743 256.88 286.827 259.073 291.312C272.351 318.458 225.964 345.752 209.347 310.874Z"/>
	<path fill="white" transform="scale(0.739221 0.739221)" d="M327.566 422.538C289.148 421.171 253.619 436.251 228.839 466.326C226.405 469.28 224.252 472.796 221.457 475.397C217.721 478.873 211.336 475.383 211.019 470.561C210.664 465.15 217.911 457.625 221.366 453.684C244.44 427.358 278.965 410.86 313.751 408.568C352.247 406.482 391.752 423.153 417.475 451.782C420.628 455.291 430.415 465.871 430.064 470.148C429.736 474.139 426.022 477.037 422.085 476.603C417.537 476.101 414.571 469.487 411.854 466.248C390.451 440.73 360.719 425.195 327.566 422.538Z"/>
</svg>
