<?xml version="1.0" encoding="utf-8" ?>
<svg xmlns="http://www.w3.org/2000/svg" xmlns:xlink="http://www.w3.org/1999/xlink" width="1024" height="1024">
	<path fill="white" transform="scale(1.6 1.6)" d="M148.508 281.041C148.389 276.606 148.091 272.174 147.952 267.739C145.292 182.565 205.429 120.167 287.906 109.202C297.588 107.915 307.328 107.617 317.078 107.332C372.571 107.94 421.177 119.453 458.583 164.967C488.09 200.87 496.54 238.041 492.202 282.75C531.682 283.712 518.749 353.567 497.207 372.456C491.458 377.497 485.587 378.939 478.111 378.403C475.521 392.417 470.517 406.328 465.025 419.439C440.593 477.758 394.967 540.935 325.412 542.827C249.757 543.449 200.675 485.157 174.118 419.693C168.989 407.05 165.561 394.05 161.473 381.08C122.177 380.284 104.385 279.493 148.508 281.041ZM318.406 118.9C274.058 119.479 230.712 130.8 198.727 163.653C166.848 196.398 159.312 230.354 159.902 273.72C160.001 281.006 159.94 289.491 165.206 295.149C169.697 286.856 171.295 277.574 174.57 268.816C179.509 255.612 195.087 221.305 209.919 216.825C219.473 213.939 227.195 218.83 236.36 220.344C271.048 226.074 309.736 218.348 342.263 206.685C354.108 202.26 365.754 197.379 376.664 190.941C381.266 188.226 391.279 178.165 397.143 180.878C399.892 182.15 400.993 189.404 402.116 192.083C409.841 210.503 424.793 222.354 440.139 234.041C458.759 248.221 463.305 256.051 469.677 278.478C471.237 283.967 472.523 289.228 475.815 293.993C484.631 280.96 482.563 250.168 479.624 234.922C472.709 199.053 450.357 165.824 420.096 145.447C388.095 123.899 355.555 119.547 318.406 118.9ZM390.871 195.372C353.679 223.081 272.391 241.603 230.038 230.991C223.043 229.239 216.961 225.52 210.472 230.449C202.904 236.196 191.171 258.724 187.343 268.12C183.116 278.497 176.666 310.17 164.527 308.335C155.528 306.975 151.281 287.429 140.519 294.926C125.132 305.644 140.436 350.823 149.768 363.101C158.897 375.114 164.702 363.154 169.401 368.674C171.285 370.888 176.286 391.545 177.829 396.142C192.16 438.827 220.587 489.026 259.744 513.475C352.295 569.321 428.858 489.299 458.955 403.293C461.694 395.468 467.329 373.906 471.311 367.734C475.718 360.906 484.44 372.754 494.178 359.118C503.183 346.507 508.363 323.244 505.679 308.114C504.59 301.979 500.131 292.774 492.393 294.3C484.221 295.912 484.644 313.488 470.464 304.593C460.913 298.602 459.305 284.968 456.344 275.007C450.078 253.927 439.351 248.427 422.626 235.364C406.595 222.843 399.418 212.931 390.871 195.372Z"/>
	<path fill="white" transform="scale(1.6 1.6)" d="M351.608 288.549C347.482 287.073 344.093 282.607 347.325 278.632C351.259 273.792 387.9 256.514 398.969 255.436C411.286 253.576 427.29 264.511 432.418 274.909C435.598 281.356 430.969 290.884 422.052 279.942C409.735 264.827 400.293 264.859 383.05 272.828C375.097 276.465 358.11 286.755 351.608 288.549Z"/>
	<path fill="white" transform="scale(1.6 1.6)" d="M260.741 274.698C221.593 254.573 221.816 282.961 213.23 284.946C210.365 285.609 206.955 283.123 206.601 280.23C205.235 269.077 225.82 256.809 236.065 255.747C249.684 253.923 264.175 263.611 275.856 269.481C280.592 271.861 291.422 275.003 293.403 280.55C294.345 283.189 292.68 286.704 289.987 287.56C285.368 289.03 279.11 284.379 275.295 282.348L260.741 274.698Z"/>
	<path fill="white" transform="scale(1.6 1.6)" d="M260.442 339.777C230.169 343.496 225.119 301.238 253.249 296.014C282.267 293.712 289.029 333.237 260.442 339.777ZM256.108 307.282C242.702 309.598 243.006 328.443 257.655 328.606C271.552 326.103 269.522 307.726 256.108 307.282Z"/>
	<path fill="white" transform="scale(1.6 1.6)" d="M386.727 339.737C355.852 344.03 350.471 301.566 378.875 296.003C408.449 293.6 414.247 332.81 386.727 339.737ZM381.267 307.578C366.628 310.162 369.684 328.74 383.743 328.487C397.409 324.698 394.654 306.441 381.267 307.578Z"/>
	<path fill="white" transform="scale(1.6 1.6)" d="M240.696 406.57C229.213 404.7 230.789 393.216 243.836 395.194C302.23 404.046 342.723 403.196 399.931 393.863C405.653 393.042 410.412 399.427 405.179 403.553C398.709 408.655 336.579 413.1 327.433 413.341C298.502 414.102 269.291 410.631 240.696 406.57Z"/>
	<path fill="white" transform="scale(1.6 1.6)" d="M327.425 484.393C312.683 486.901 282.794 471.807 280.733 457.802C279.263 447.812 309.059 439.476 316.28 438.871C326.152 438.114 335.941 440.066 344.749 444.579C348.459 446.48 361.805 454.923 362.67 459.106C364.796 469.391 336.07 483.139 327.425 484.393ZM316.167 450.414C308.162 451.639 301.324 453.7 294.538 458.249C302.021 468.345 314.569 474.129 327.012 472.747C335.118 471.203 342.928 466.437 349.101 461.082C339.335 453.864 328.634 448.998 316.167 450.414Z"/>
</svg>
